<?xml version="1.0" encoding="UTF-8"?>
<!DOCTYPE svg PUBLIC "-//W3C//DTD SVG 1.1//EN" "http://www.w3.org/Graphics/SVG/1.1/DTD/svg11.dtd">
<!-- Creator: CorelDRAW X5 -->
<svg xmlns="http://www.w3.org/2000/svg" xml:space="preserve" width="30px" height="30px" style="shape-rendering:geometricPrecision; text-rendering:geometricPrecision; image-rendering:optimizeQuality; fill-rule:evenodd; clip-rule:evenodd"
viewBox="0 0 30 30"
 xmlns:xlink="http://www.w3.org/1999/xlink"
 version="1.1"
 enable-background="new 0 0 100 100">
 <defs>
  <style type="text/css">
   <![CDATA[
    .fil0 {fill:black}
   ]]>
  </style>
 </defs>
 <g id="Layer_x0020_1">
  <metadata id="CorelCorpID_0Corel-Layer"/>
  <g id="_414593224">
   <path id="_418099896" class="fil0" d="M20.6667 14.3333c-0.446368,0 -0.863255,0.126616 -1.22005,0.343185 -0.373044,-0.793333 -1.17998,-1.34326 -2.11316,-1.34326 -0.446746,0 -0.863633,0.126616 -1.22005,0.343563 -0.373422,-0.793333 -1.17998,-1.34364 -2.11354,-1.34364 -0.356792,0 -0.696576,0.080127 -1.00008,0.226775l0 -3.73006c0.813365,-0.67352 1.33343,-1.69023 1.33343,-2.83015 0,-2.02699 -1.63996,-3.66694 -3.66657,-3.66694 -2.02699,0 -3.66694,1.64034 -3.66694,3.66694 0,1.13992 0.52007,2.15663 1.33343,2.83015l0 11.5035c0,4.04339 3.29012,7.33351 7.33351,7.33351 4.04339,0 7.33351,-3.29012 7.33351,-7.33351l0 -3.66657c0,-1.28695 -1.04656,-2.33351 -2.33351,-2.33351zm1.00008 6.00008c0,3.30675 -2.69333,6.00045 -6.00008,6.00045 -3.31015,0 -6.00008,-2.6937 -6.00008,-6.00045l-0.000377958 -13.6669c0,-0.549928 0.450147,-1.00008 1.00045,-1.00008 0.549928,0 1.00008,0.450147 1.00008,1.00008l0 8.00023c0,0.366619 0.29972,0.666717 0.666717,0.666717 0.366619,0 0.666717,-0.300098 0.666717,-0.666717 0,-0.549928 0.449769,-1.00008 1.00008,-1.00008 0.549928,0 1.00008,0.450147 1.00008,1.00008l0 1.00008c0,0.366619 0.29972,0.666717 0.666717,0.666717 0.366619,0 0.666717,-0.300098 0.666717,-0.666717 0,-0.549928 0.449769,-1.00008 1.00008,-1.00008 0.549928,0 1.00008,0.450147 1.00008,1.00008l0 1.00008c0,0.366619 0.300098,0.666717 0.666717,0.666717 0.366619,0 0.666717,-0.300098 0.666717,-0.666717 0,-0.549928 0.450147,-1.00008 1.00008,-1.00008 0.549928,0 1.00008,0.450147 1.00008,1.00008l-0.000755915 3.66657z"/>
  </g>
 </g>
</svg>
